<svg width="75" height="52" viewBox="0 0 75 52" fill="none" xmlns="http://www.w3.org/2000/svg">
<g clip-path="url(#clip0)">
<path fill-rule="evenodd" clip-rule="evenodd" d="M56.481 31.3998C48.2342 31.3998 41.5233 24.7069 41.5233 16.4824C41.5233 8.25784 48.2342 1.56499 56.481 1.56499C64.7277 1.56499 71.4387 8.25784 71.4387 16.4824C71.4387 19.3127 70.6485 21.9654 69.2685 24.2186L70.2478 25.1842C71.8504 22.6647 72.7853 19.679 72.7853 16.4824C72.7853 7.51419 65.4734 0.221985 56.481 0.221985C47.4997 0.221985 40.1877 7.51419 40.1877 16.4713C40.1877 25.4284 47.4997 32.7206 56.481 32.7206C59.0073 32.7206 61.4001 32.1434 63.5369 31.1112L62.5241 30.1012C60.6767 30.9336 58.64 31.3998 56.481 31.3998Z" fill="white"/>
<path fill-rule="evenodd" clip-rule="evenodd" d="M69.146 26.6935L68.1889 25.739L61.9788 19.5456L58.2616 23.2527L64.2491 29.2241L65.2174 30.2009L68.6229 33.5972L72.3512 29.8901L69.146 26.6935Z" fill="#BE1E2D"/>
<path fill-rule="evenodd" clip-rule="evenodd" d="M64.6941 30.512L63.7148 29.5352L58.2837 24.1188C58.0388 23.8746 57.6382 23.8746 57.3933 24.1188C57.1485 24.363 57.1485 24.7626 57.3933 25.0067L62.5239 30.1235L63.5367 31.1335L66.8755 34.4633C67.1203 34.7075 67.521 34.7075 67.7658 34.4633C68.0107 34.2191 68.0107 33.8196 67.7658 33.5754L64.6941 30.512Z" fill="white"/>
<path fill-rule="evenodd" clip-rule="evenodd" d="M70.2367 25.1841L69.2684 24.2185L63.7261 18.6911C63.4812 18.4469 63.0806 18.4469 62.8357 18.6911C62.5909 18.9353 62.5909 19.3348 62.8357 19.579L68.545 25.2729L69.5022 26.2275L72.3067 29.0245C72.5516 29.2686 72.9522 29.2686 73.1971 29.0245C73.4419 28.7803 73.4419 28.3807 73.1971 28.1365L70.2367 25.1841Z" fill="white"/>
<path d="M12.4313 0.311035C12.0974 0.311035 11.8303 0.577417 11.8303 0.910395V49.3586C11.8303 49.6916 12.0974 49.958 12.4313 49.958C12.7652 49.958 13.0323 49.6916 13.0323 49.3586V0.910395C13.0323 0.577417 12.7652 0.311035 12.4313 0.311035Z" fill="white"/>
<path d="M5.69815 0.943564C5.69815 0.921366 5.69815 0.910267 5.68702 0.888068C5.68702 0.86587 5.68702 0.85477 5.67589 0.832572C5.67589 0.821473 5.66476 0.799274 5.66476 0.777076C5.65363 0.754877 5.65363 0.732679 5.6425 0.721579C5.63137 0.71048 5.63137 0.699381 5.62024 0.677182V0.666083C5.60912 0.654984 5.59799 0.632785 5.58686 0.621686C5.57573 0.610587 5.5646 0.588388 5.55347 0.577289C5.54234 0.56619 5.53121 0.543991 5.50895 0.532892C5.49782 0.521793 5.48669 0.510693 5.46444 0.499594C5.45331 0.488495 5.43105 0.477396 5.41992 0.466296L5.39766 0.455197C5.39766 0.444098 5.38653 0.444098 5.3754 0.444098C5.35314 0.432999 5.33088 0.421899 5.30863 0.4108C5.28637 0.399701 5.27524 0.399701 5.25298 0.399701C5.23072 0.399701 5.20846 0.388602 5.19733 0.388602C5.17507 0.388602 5.15282 0.388602 5.14169 0.377502C5.11943 0.377502 5.08604 0.377502 5.08604 0.377502C5.06378 0.377502 5.04152 0.377502 5.01927 0.388602C4.99701 0.388602 4.98588 0.388602 4.96362 0.399701C4.94136 0.399701 4.93023 0.4108 4.90797 0.421899C4.88571 0.432999 4.87458 0.432999 4.85233 0.444098C4.8412 0.455197 4.81894 0.455197 4.80781 0.466296L4.79668 0.477396C4.78555 0.488495 4.76329 0.499594 4.75216 0.499594C4.74103 0.510693 4.71878 0.521793 4.70765 0.543991C4.69652 0.55509 4.68539 0.56619 4.66313 0.577289C4.652 0.588388 4.64087 0.610587 4.62974 0.621686C4.61861 0.632785 4.60748 0.654984 4.59635 0.666083H4.58522L0.0778794 8.45776C-0.0890593 8.74634 0.011104 9.11261 0.300464 9.2791C0.434015 9.3568 0.600954 9.379 0.756764 9.3346C0.912573 9.2902 1.04612 9.19031 1.12403 9.05712L4.50732 3.20781V32.2657C4.50732 32.5986 4.77442 32.865 5.1083 32.865C5.44218 32.865 5.70928 32.5986 5.70928 32.2657V0.976862L5.69815 0.943564Z" fill="white"/>
<path d="M10.4169 0.510437H7.18945V49.8466H10.4169V0.510437Z" fill="#BE1E2D"/>
<path fill-rule="evenodd" clip-rule="evenodd" d="M20.3219 40.4568H16.2263C16.2374 40.9008 16.3376 41.2448 16.5268 41.489C16.8273 41.8997 17.2725 42.1106 17.8623 42.1106C18.5857 42.1106 19.0643 41.7887 19.3203 41.1449H20.2106C20.0548 41.8886 19.6096 42.3992 18.8751 42.6655C18.5635 42.7765 18.2185 42.832 17.8401 42.832C16.8718 42.832 16.1707 42.4991 15.7255 41.822C15.4473 41.4002 15.3137 40.8897 15.3137 40.2681C15.3137 39.3025 15.6476 38.5699 16.3154 38.1037C16.7383 37.8041 17.2502 37.6487 17.8623 37.6487C18.6748 37.6487 19.3091 37.904 19.7765 38.4034C19.9212 38.5588 20.0325 38.7253 20.1216 38.914C20.244 39.2581 20.3219 39.7686 20.3219 40.4568ZM16.2374 39.8352H19.3536C19.3648 39.8241 19.3648 39.8019 19.3648 39.7797C19.3648 39.2914 19.1533 38.9029 18.7415 38.6254C18.4744 38.4478 18.1628 38.359 17.8289 38.359C17.228 38.359 16.7828 38.5921 16.4934 39.0472C16.3487 39.2692 16.2708 39.5356 16.2374 39.8352ZM25.4191 39.136H24.4842C24.462 38.6254 24.0947 38.359 23.3713 38.359C22.7926 38.359 22.4253 38.5144 22.2584 38.8141C22.2139 38.9029 22.1916 38.9917 22.1916 39.0916C22.1916 39.3691 22.4253 39.5799 22.8927 39.7131C22.9929 39.7353 23.1042 39.7575 23.2155 39.7908L24.0613 39.9684C24.896 40.146 25.3968 40.4457 25.5638 40.8786C25.6083 41.0118 25.6305 41.156 25.6305 41.3225C25.6305 41.9108 25.3078 42.3437 24.6734 42.61C24.3062 42.7654 23.861 42.8542 23.3379 42.8542C21.969 42.8542 21.2234 42.3548 21.1343 41.3558C21.1232 41.3114 21.1232 41.2559 21.1232 41.2004H22.058C22.1026 41.489 22.1916 41.6999 22.314 41.822C22.5477 42.0329 22.915 42.1439 23.4158 42.1439C24.0057 42.1439 24.4063 41.9996 24.6066 41.711C24.6734 41.6111 24.7068 41.5001 24.7068 41.3891C24.7068 41.1116 24.5176 40.9119 24.1392 40.7898L23.8499 40.7121L23.0152 40.5345C22.1805 40.3569 21.6463 40.1127 21.4237 39.7908C21.3124 39.6243 21.2567 39.4024 21.2567 39.136C21.2567 38.5588 21.5572 38.1481 22.1471 37.8929C22.4921 37.7375 22.9039 37.6598 23.3936 37.6598C24.4174 37.6598 25.0518 37.9706 25.3078 38.5921C25.3857 38.7475 25.4191 38.9251 25.4191 39.136ZM28.7801 37.7819V38.4145H27.8675V41.7332C27.8675 41.9663 27.9454 42.0995 28.1012 42.1439C28.168 42.1661 28.257 42.1772 28.3572 42.1772C28.5353 42.1772 28.6799 42.1661 28.7801 42.1328V42.7765C28.5019 42.8209 28.257 42.8431 28.0567 42.8431C27.4223 42.8431 27.0773 42.6322 26.9994 42.2216C26.9883 42.1772 26.9883 42.1328 26.9883 42.0773V38.4256H26.2315V37.793H26.9883V36.4611H27.8675V37.793H28.7801V37.7819ZM34.712 42.1661V42.7432C34.4672 42.7987 34.2668 42.832 34.111 42.832C33.6102 42.832 33.3097 42.6433 33.2207 42.2549C33.2096 42.2105 33.2096 42.1661 33.1984 42.1217C32.5863 42.5879 31.9519 42.832 31.3064 42.832C30.5274 42.832 29.9821 42.599 29.6816 42.1439C29.548 41.9219 29.4813 41.6777 29.4813 41.4002C29.4813 40.7676 29.804 40.3458 30.4606 40.1127C30.7166 40.0239 31.1729 39.9351 31.8407 39.8685C31.9519 39.8574 32.0855 39.8463 32.2413 39.8241C32.7644 39.7686 33.0537 39.6465 33.1316 39.469C33.1539 39.4246 33.165 39.358 33.165 39.2803V39.0805C33.165 38.692 32.8757 38.4589 32.3081 38.3812C32.1857 38.3701 32.0632 38.359 31.9297 38.359C31.1952 38.359 30.7722 38.5921 30.6498 39.0472C30.6387 39.1027 30.6276 39.1582 30.6164 39.2137H29.7261C29.7484 38.7697 29.8819 38.4367 30.1045 38.2036C30.494 37.8263 31.1061 37.6376 31.9519 37.6376C33.1984 37.6376 33.8884 37.9928 34.022 38.7031C34.0331 38.7808 34.0442 38.8696 34.0442 38.9473V41.7887C34.0442 42.044 34.2001 42.1661 34.5228 42.1661C34.5785 42.1883 34.6452 42.1883 34.712 42.1661ZM33.165 41.1005V40.2348C32.9424 40.3236 32.5307 40.4124 31.9519 40.479C31.8852 40.4901 31.8184 40.4901 31.7405 40.5123C30.9948 40.6011 30.5608 40.812 30.4384 41.1449C30.4161 41.2226 30.3939 41.3003 30.3939 41.3891C30.3939 41.7887 30.6276 42.0329 31.1061 42.1217C31.2174 42.1439 31.351 42.1661 31.4845 42.1661C31.9965 42.1661 32.4305 42.0218 32.7978 41.7332C33.0315 41.5445 33.1539 41.3336 33.165 41.1005ZM37.6279 37.7819V38.4145H36.7153V41.7332C36.7153 41.9663 36.7932 42.0995 36.949 42.1439C37.0158 42.1661 37.1048 42.1772 37.205 42.1772C37.383 42.1772 37.5277 42.1661 37.6279 42.1328V42.7765C37.3496 42.8209 37.1048 42.8431 36.9045 42.8431C36.2701 42.8431 35.9251 42.6322 35.8472 42.2216C35.8361 42.1772 35.8361 42.1328 35.8361 42.0773V38.4256H35.0793V37.793H35.8361V36.4611H36.7153V37.793H37.6279V37.7819ZM43.1814 40.4568H39.0858C39.0969 40.9008 39.1971 41.2448 39.3863 41.489C39.6868 41.8997 40.1319 42.1106 40.7218 42.1106C41.4452 42.1106 41.9238 41.7887 42.1797 41.1449H43.0701C42.9143 41.8886 42.4691 42.3992 41.7346 42.6655C41.4229 42.7765 41.0779 42.832 40.6995 42.832C39.7313 42.832 39.0302 42.4991 38.585 41.822C38.3067 41.4002 38.1732 40.8897 38.1732 40.2681C38.1732 39.3025 38.5071 38.5699 39.1748 38.1037C39.5977 37.8041 40.1097 37.6487 40.7218 37.6487C41.5342 37.6487 42.1686 37.904 42.636 38.4034C42.7807 38.5588 42.892 38.7253 42.981 38.914C43.1035 39.2581 43.1814 39.7686 43.1814 40.4568ZM39.1081 39.8352H42.2242C42.2354 39.8241 42.2354 39.8019 42.2354 39.7797C42.2354 39.2914 42.0239 38.9029 41.6121 38.6254C41.345 38.4478 41.0334 38.359 40.6995 38.359C40.0986 38.359 39.6534 38.5921 39.364 39.0472C39.2193 39.2692 39.1303 39.5356 39.1081 39.8352Z" fill="white"/>
<path fill-rule="evenodd" clip-rule="evenodd" d="M20.1215 43.2537V49.9798H19.3313V49.3472C18.9195 49.8577 18.4187 50.1352 17.8066 50.1907C17.7287 50.1907 17.6508 50.2018 17.5618 50.2018C16.638 50.2018 15.9703 49.8577 15.5474 49.1696C15.2803 48.7367 15.1467 48.2039 15.1467 47.5602C15.1467 46.6167 15.4583 45.9064 16.0927 45.4402C16.4934 45.1516 16.9719 45.0073 17.5395 45.0073C18.3074 45.0073 18.875 45.2515 19.2534 45.751V43.2537H20.1215ZM17.6842 45.7399C17.0832 45.7399 16.638 45.9952 16.3487 46.4947C16.204 46.7277 16.115 47.0052 16.0816 47.316C16.0705 47.4159 16.0705 47.5158 16.0705 47.6157C16.0705 48.3704 16.3153 48.9032 16.8161 49.2362C17.0721 49.4027 17.3614 49.4804 17.6953 49.4804C18.2852 49.4804 18.7192 49.2251 18.9974 48.7256C19.1644 48.4148 19.2534 48.0486 19.2534 47.6268C19.2534 46.8165 18.9974 46.2616 18.4855 45.9508C18.2407 45.8065 17.9847 45.7399 17.6842 45.7399ZM26.2203 47.8266H22.1248C22.1359 48.2705 22.2361 48.6146 22.4252 48.8588C22.7257 49.2695 23.1709 49.4804 23.7608 49.4804C24.4842 49.4804 24.9627 49.1585 25.2187 48.5147H26.109C25.9532 49.2584 25.508 49.7689 24.7735 50.0353C24.4619 50.1463 24.1169 50.2018 23.7385 50.2018C22.7703 50.2018 22.0691 49.8688 21.6239 49.1918C21.3457 48.77 21.2122 48.2594 21.2122 47.6379C21.2122 46.6722 21.546 45.9397 22.2138 45.4735C22.6367 45.1738 23.1486 45.0184 23.7608 45.0184C24.5732 45.0184 25.2076 45.2737 25.675 45.7732C25.8197 45.9286 25.931 46.0951 26.02 46.2838C26.1424 46.6278 26.2203 47.1384 26.2203 47.8266ZM22.1359 47.205H25.2521C25.2632 47.1939 25.2632 47.1717 25.2632 47.1495C25.2632 46.6611 25.0517 46.2727 24.64 45.9952C24.3729 45.8176 24.0612 45.7288 23.7274 45.7288C23.1264 45.7288 22.6812 45.9619 22.3919 46.417C22.2583 46.6389 22.1693 46.9053 22.1359 47.205ZM29.5368 49.9909H28.5686L26.621 45.1516H27.6226L29.1139 49.0808L30.6831 45.1516H31.6848L29.5368 49.9909ZM37.0491 47.8266H32.9424C32.9535 48.2705 33.0537 48.6146 33.2429 48.8588C33.5434 49.2695 33.9885 49.4804 34.5784 49.4804C35.3018 49.4804 35.7803 49.1585 36.0363 48.5147H36.9266C36.7708 49.2584 36.3257 49.7689 35.5911 50.0353C35.2795 50.1463 34.9345 50.2018 34.5561 50.2018C33.5879 50.2018 32.8867 49.8688 32.4416 49.1918C32.1633 48.77 32.0298 48.2594 32.0298 47.6379C32.0298 46.6722 32.3637 45.9397 33.0314 45.4735C33.4543 45.1738 33.9663 45.0184 34.5784 45.0184C35.3908 45.0184 36.0252 45.2737 36.4926 45.7732C36.6373 45.9286 36.7486 46.0951 36.8376 46.2838C36.9712 46.6278 37.0491 47.1384 37.0491 47.8266ZM32.9646 47.205H36.0808C36.0919 47.1939 36.0919 47.1717 36.0919 47.1495C36.0919 46.6611 35.8805 46.2727 35.4687 45.9952C35.2016 45.8176 34.89 45.7288 34.5561 45.7288C33.9551 45.7288 33.51 45.9619 33.2206 46.417C33.0871 46.6389 32.998 46.9053 32.9646 47.205ZM39.108 43.2537V49.9798H38.2176V43.2537H39.108ZM42.7472 45.0184C43.8268 45.0184 44.5613 45.418 44.962 46.2061C45.1623 46.6056 45.2736 47.0829 45.2736 47.649C45.2736 48.6812 44.9174 49.4138 44.194 49.8466C43.8045 50.0797 43.326 50.2018 42.7584 50.2018C41.7345 50.2018 41.0111 49.8355 40.5882 49.103C40.3544 48.6923 40.2432 48.1928 40.2432 47.6046C40.2432 46.5391 40.6104 45.7843 41.3561 45.3514C41.7345 45.1294 42.2019 45.0184 42.7472 45.0184ZM42.7584 45.7288C42.1017 45.7288 41.6343 46.0063 41.3672 46.5835C41.2337 46.8831 41.1669 47.2272 41.1669 47.6157C41.1669 48.4592 41.4451 49.0253 41.9904 49.325C42.213 49.4471 42.4579 49.5026 42.7584 49.5026C43.3927 49.5026 43.849 49.2362 44.1273 48.6923C44.2719 48.4037 44.3498 48.0486 44.3498 47.649C44.3498 46.761 44.0605 46.1728 43.4818 45.8842C43.2592 45.7732 43.0255 45.7288 42.7584 45.7288ZM46.3308 51.9999V45.1516H47.1433V45.8842C47.5662 45.307 48.156 45.0184 48.9128 45.0184C49.8143 45.0184 50.4709 45.3625 50.8938 46.0396C51.1609 46.4725 51.2945 47.0163 51.2945 47.649C51.2945 48.6035 50.9829 49.3028 50.3485 49.7689C50.0703 49.9687 49.7475 50.1019 49.3803 50.1685C49.2356 50.1907 49.0798 50.2018 48.9128 50.2018C48.2228 50.2018 47.6552 49.9576 47.1989 49.4804V51.9999H46.3308ZM48.7682 45.7399C48.1783 45.7399 47.7443 45.9952 47.4772 46.5169C47.3102 46.8276 47.2212 47.1939 47.2212 47.6157C47.2212 48.3815 47.466 48.9254 47.9557 49.2473C48.1894 49.4027 48.4677 49.4915 48.7793 49.4915C49.3691 49.4915 49.8143 49.2473 50.1148 48.7478C50.2929 48.437 50.393 48.0708 50.393 47.649C50.393 46.8609 50.1482 46.3171 49.6362 45.9841C49.3803 45.8176 49.102 45.7399 48.7682 45.7399ZM52.4074 45.1516H53.231V45.8398C53.6094 45.3736 54.0657 45.1072 54.5887 45.0406C54.6889 45.0295 54.8113 45.0184 54.9449 45.0184C55.5792 45.0184 56.0355 45.2182 56.3472 45.6178C56.3805 45.6622 56.4139 45.7066 56.4473 45.751C56.8257 45.3514 57.2375 45.1183 57.6938 45.0517C57.8385 45.0295 57.9943 45.0184 58.1612 45.0184C59.0293 45.0184 59.5412 45.3181 59.7193 45.9175C59.7527 46.0507 59.775 46.2061 59.775 46.3615V49.9909H58.8846V46.6611C58.8846 46.1617 58.662 45.862 58.2169 45.7399C58.1056 45.7066 57.9832 45.6955 57.8607 45.6955C57.4267 45.6955 57.0817 45.862 56.8146 46.195C56.6365 46.4281 56.5475 46.6722 56.5475 46.9608V50.002H55.6571V46.6722C55.6571 46.1395 55.4123 45.8287 54.9004 45.7288C54.8113 45.7066 54.7223 45.6955 54.6221 45.6955C54.1881 45.6955 53.832 45.8731 53.576 46.2172C53.409 46.4392 53.32 46.6833 53.32 46.9608V50.002H52.4297V45.1516H52.4074ZM65.9517 47.8266H61.8561C61.8673 48.2705 61.9674 48.6146 62.1566 48.8588C62.4571 49.2695 62.9023 49.4804 63.4921 49.4804C64.2155 49.4804 64.6941 49.1585 64.9501 48.5147H65.8404C65.6846 49.2584 65.2394 49.7689 64.5049 50.0353C64.1933 50.1463 63.8483 50.2018 63.4699 50.2018C62.5016 50.2018 61.8005 49.8688 61.3553 49.1918C61.0771 48.77 60.9435 48.2594 60.9435 47.6379C60.9435 46.6722 61.2774 45.9397 61.9452 45.4735C62.3681 45.1738 62.88 45.0184 63.4921 45.0184C64.3046 45.0184 64.9389 45.2737 65.4064 45.7732C65.551 45.9286 65.6623 46.0951 65.7514 46.2838C65.8738 46.6278 65.9517 47.1384 65.9517 47.8266ZM61.8673 47.205H64.9834C64.9946 47.1939 64.9946 47.1717 64.9946 47.1495C64.9946 46.6611 64.7831 46.2727 64.3713 45.9952C64.1042 45.8176 63.7926 45.7288 63.4587 45.7288C62.8578 45.7288 62.4126 45.9619 62.1232 46.417C61.9897 46.6389 61.9007 46.9053 61.8673 47.205ZM67.1425 45.1516H67.9661V45.9619C68.3445 45.4402 68.8008 45.1294 69.3461 45.0517C69.4908 45.0295 69.6466 45.0184 69.8135 45.0184C70.5592 45.0184 71.0823 45.2293 71.3716 45.6622C71.5052 45.862 71.5719 46.084 71.5719 46.3393V49.9909H70.6927V46.6389C70.6927 46.2061 70.4813 45.9175 70.0695 45.7732C69.9248 45.7177 69.7468 45.6844 69.5464 45.6844C68.9566 45.6844 68.5225 45.9175 68.2666 46.3948C68.1219 46.65 68.044 46.9608 68.044 47.316V49.9909H67.1536V45.1516H67.1425ZM74.9998 45.1516V45.7843H74.0872V49.103C74.0872 49.3361 74.1651 49.4693 74.3209 49.5137C74.3876 49.5359 74.4767 49.547 74.5768 49.547C74.7549 49.547 74.8996 49.5359 74.9998 49.5026V50.1463C74.7215 50.1907 74.4767 50.2129 74.2764 50.2129C73.642 50.2129 73.297 50.002 73.2191 49.5914C73.208 49.547 73.2079 49.5026 73.2079 49.4471V45.7954H72.4512V45.1627H73.2079V43.8308H74.0872V45.1627H74.9998V45.1516Z" fill="white"/>
<path d="M35.3021 17.4036C33.8998 16.4158 31.8631 15.6943 29.2477 15.2726C28.2684 15.1283 27.4671 15.0062 26.8661 14.9285C24.0059 14.54 22.0583 14.0628 21.0678 13.53C19.0868 12.4534 18.1296 10.7885 18.1296 8.42433C18.1296 6.34877 18.9421 4.60619 20.5447 3.24098C22.1696 1.86467 24.2618 1.16542 26.7659 1.16542C30.2939 1.17652 33.1207 2.35304 35.1908 4.67279L35.2798 4.77268C35.3577 4.86147 35.4356 4.91697 35.5135 4.95027C35.5914 4.98356 35.6805 4.99466 35.8029 4.99466H35.8585C36.1701 4.93917 36.3593 4.72828 36.3593 4.4397V4.38421L36.2147 4.05123L36.1479 3.91804C36.0588 3.75155 35.8251 3.45187 34.7679 2.65272C34.1112 2.16435 33.6215 1.83138 33.2654 1.63159C31.3623 0.554963 29.1698 0 26.7325 0C24.2062 0 22.0026 0.677055 20.1885 1.99787C18.0629 3.56286 16.9833 5.72721 16.9945 8.45763C17.0056 11.1658 18.1185 13.1859 20.3221 14.4734C21.4684 15.1394 23.5384 15.661 26.6546 16.0939C27.6897 16.2382 28.6134 16.3825 29.4036 16.5046C31.9967 16.9264 33.9666 17.7366 35.2464 18.902C36.504 20.0453 37.1495 21.5769 37.1384 23.4638C37.1273 26.0943 36.0477 28.0589 33.8441 29.4907C32.0189 30.6561 29.8042 31.2555 27.2667 31.2555C25.2078 31.2555 23.238 30.867 21.4016 30.1123C19.2982 29.2354 17.6956 27.9812 16.6049 26.3829L16.5159 26.2497L16.3601 26.0721L16.3267 26.0499C16.2265 25.9834 16.1375 25.9501 16.0485 25.9501C15.8593 25.9501 15.7035 26.0388 15.5922 26.1942C15.5031 26.3274 15.4586 26.4495 15.4586 26.5827V26.6382L15.6033 26.9823L15.6701 27.1044C15.8815 27.5483 16.4046 28.1255 17.2393 28.8692C17.9293 29.4685 18.5414 29.9458 19.0756 30.2788C21.3571 31.7217 23.9836 32.4542 26.8995 32.4542C29.8487 32.4542 32.3862 31.8105 34.4228 30.534C36.9714 28.9358 38.2513 26.5494 38.2513 23.4305C38.2624 20.8111 37.2719 18.7799 35.3021 17.4036Z" fill="white"/>
</g>
<defs>
<clipPath id="clip0">
<rect width="75" height="52" fill="white"/>
</clipPath>
</defs>
</svg>
